<svg viewBox="0 0 74.8463 58.9323" xmlns="http://www.w3.org/2000/svg" xmlns:xlink="http://www.w3.org/1999/xlink" width="74.846283" height="58.932312" fill="none">
	<rect id="undraw_flower (2) 1" width="74.846283" height="58.932285" x="0.000000" y="0.000000" />
	<path id="矢量 17" d="M40.3048 23.1974C38.407 23.0893 36.5692 23.0783 34.6887 23.3976C32.8784 23.7049 31.2089 24.4991 29.8285 25.5768C26.7785 27.9578 26.1982 32.7499 29.3166 35.3097C32.3516 37.8009 36.7479 37.2351 40.362 36.2323C41.9782 35.7839 43.7053 35.243 45.0783 34.3387C47.0095 33.0668 48.4372 31.2539 48.433 29.0277C48.4291 26.9417 47.012 24.9375 44.892 24.0569C42.652 23.1265 40.4572 23.2681 38.0849 23.5826C36.4614 23.7977 34.8643 24.1706 33.3305 24.6932C31.0749 25.4618 28.9107 26.4409 28.1109 28.6531C27.2118 31.1397 28.8163 33.7896 31.6356 34.4784C33.2988 34.8847 35.104 34.57 36.7812 34.4115C38.5894 34.2406 40.5379 34.1964 42.1398 33.3249C44.5764 31.9995 45.4469 29.299 43.996 27.0553C42.6227 24.9318 39.8387 24.4647 37.3266 24.5799C34.429 24.7129 31.6181 25.9167 30.8151 28.6203C30.0466 31.2074 32.0694 33.8395 34.931 34.3821C37.6728 34.902 39.9478 33.7289 41.8663 32.0835C42.9516 31.1527 43.2088 29.6315 42.6401 28.4257C42.0593 27.1944 40.7276 26.3907 39.2201 26.3674C38.4666 26.3557 37.7132 26.3441 36.9598 26.3325C35.0015 26.3022 33.128 27.8942 33.2175 29.6809C33.3096 31.521 34.8614 32.9969 36.9598 33.0293C37.7132 33.041 38.4666 33.0526 39.2201 33.0642L36.5738 27.3481C36.4193 27.4807 36.2649 27.6136 36.1051 27.7411C35.9986 27.8269 35.8899 27.9104 35.7789 27.9916C36.2315 27.6891 36.3415 27.6096 36.1089 27.7534C35.9785 27.8199 35.299 28.1268 35.9126 27.9027C36.5315 27.6766 35.756 27.9152 35.6004 27.9387L36.5952 27.8191C36.4231 27.8328 36.2655 27.8345 36.093 27.825L37.0878 27.9446C36.9563 27.9288 36.8019 27.8715 36.6751 27.8731C36.4933 27.8234 36.5642 27.854 36.8877 27.9648C37.2265 28.1051 37.2765 28.1189 37.0377 28.0059C37.0685 28.0258 37.7565 28.5673 37.4215 28.2595C37.6714 28.4608 37.8445 28.702 37.9409 28.983C38.0703 29.3029 38.0983 29.346 38.025 29.1123L38.1587 30.0024C38.136 29.8932 38.1297 29.7832 38.1399 29.6724L38.0062 30.5626C38.069 30.1735 38.2852 30.0928 37.8558 30.7397C37.4603 31.1562 37.3601 31.2692 37.5553 31.0789C37.7549 30.895 37.6223 30.9751 37.1575 31.3193L37.318 31.2264C37.6424 31.0758 37.5376 31.1133 37.0036 31.3391C37.0616 31.3751 37.5806 31.2214 37.6521 31.2108L36.6572 31.3304C37.4582 31.2423 38.2944 31.2259 39.0982 31.2931L38.1033 31.1735C38.2473 31.1923 38.3883 31.2206 38.5317 31.2414C39.1602 31.3329 37.9715 30.9678 38.2894 31.1395C38.4498 31.23 38.3962 31.1913 38.1286 31.0233C37.9489 30.9354 37.81 30.811 37.7118 30.6501C37.5251 30.4086 37.4804 30.3598 37.5775 30.5039C37.7236 30.7342 37.6513 30.5884 37.3608 30.0664L37.2272 29.1762C37.2514 29.2795 37.2582 29.3838 37.2474 29.489L37.3811 28.5988C37.3093 28.9318 37.3945 28.7937 37.6366 28.1846C37.4488 28.4661 37.5584 28.3444 37.9655 27.8194C38.5419 27.4503 38.6742 27.358 38.3622 27.5424C38.1273 27.6529 38.1807 27.6394 38.5225 27.502C39.2187 27.2473 38.4975 27.493 38.3418 27.5292C38.1256 27.5794 37.9063 27.6134 37.6857 27.6434L38.6806 27.5238C37.6769 27.6385 36.6686 27.728 35.6617 27.8171C34.7763 27.8954 33.8631 28.0319 32.9725 27.9583L33.9674 28.0779C33.7913 28.054 33.0821 27.8416 33.7613 28.081C34.0694 28.1624 34.3362 28.3099 34.5617 28.5236C35.1661 29.6889 35.3844 29.9965 35.2168 29.4464L35.3505 30.3365C35.3301 30.1663 35.3332 30.0276 35.3581 29.8578L35.2244 30.7479C35.3404 30.3169 35.063 31.018 35.0286 31.0838C35.2999 30.5652 34.5845 31.5413 34.8479 31.2944C35.1229 31.0366 34.1959 31.6448 34.5594 31.4929C34.7085 31.4306 34.8471 31.34 34.9956 31.2736C35.0964 31.2285 35.2491 31.1344 35.3608 31.1225L34.8732 31.3081C34.9844 31.2676 35.0961 31.2281 35.2082 31.1897C35.5442 31.0734 35.8832 30.964 36.225 30.8621C37.5942 30.4541 39.0021 30.1708 40.4313 29.9953L39.4365 30.1149C40.2398 30.024 41.0369 29.9605 41.8456 30.0291L40.8508 29.9095C41.0773 29.9381 41.5325 30.1173 41.741 30.0836C41.148 29.8424 41.0257 29.798 41.3739 29.9501C41.4865 30.0039 41.5953 30.0633 41.7002 30.1284C41.2051 29.7662 41.0971 29.7011 41.3763 29.9329C41.6297 30.1889 41.5494 30.0955 41.1354 29.6528C41.3152 29.9555 41.2666 29.8446 40.9894 29.3201C41.026 29.4312 41.0518 29.5442 41.067 29.6591L40.9333 28.769C40.9489 28.947 40.9488 29.1094 40.9341 29.2875L41.0678 28.3974C41.0388 28.5759 40.9956 28.737 40.9446 28.9112C40.7888 29.4443 41.2919 28.3726 41.0421 28.6793C40.6313 29.1834 41.2455 28.6201 41.2294 28.5088C41.2402 28.5834 40.8317 28.8505 40.7863 28.9041C41.249 28.5982 41.3644 28.5191 41.1325 28.6668C41.0477 28.7216 40.9609 28.7739 40.872 28.8234C40.7242 28.9075 40.5717 28.985 40.4174 29.0593C40.2626 29.1339 40.1053 29.2043 39.9461 29.2713C39.8507 29.3115 39.7547 29.3505 39.6579 29.388C39.4015 29.4885 39.5299 29.4399 40.0431 29.2422C39.7316 29.242 39.2369 29.5193 38.9348 29.6113C38.4869 29.7476 38.0341 29.871 37.5771 29.9806C36.7499 30.1789 35.9103 30.3304 35.0628 30.4398L36.0577 30.3202C35.3764 30.3984 34.7009 30.4304 34.0163 30.3682L35.0111 30.4878C34.7986 30.4613 34.1879 30.4376 34.0441 30.2901C34.1772 30.4266 34.9118 30.5761 34.3201 30.3642C34.0062 30.2519 34.9405 30.9062 34.5428 30.52C34.1929 30.1803 34.7892 30.793 34.7846 30.8344C34.7886 30.7985 34.596 30.5473 34.5612 30.4947C34.3512 30.1771 34.8162 31.2948 34.7154 30.7774C34.6846 30.6197 34.6361 30.4657 34.6092 30.3064L34.7429 31.1965C34.7054 30.8688 34.7109 30.5524 34.7576 30.2254L34.6239 31.1155C34.663 30.9145 34.7849 30.6811 34.7973 30.4828C34.523 31.0272 34.4684 31.1446 34.6334 30.8348C34.6909 30.7352 34.7536 30.6383 34.8214 30.5441C35.0392 30.261 34.9587 30.3476 34.58 30.8039C34.6627 30.7157 34.7492 30.6307 34.8395 30.5487C34.93 30.4667 35.0238 30.3878 35.1209 30.3122C35.4157 30.0931 35.316 30.1609 34.8218 30.5156C35.0455 30.4448 35.2748 30.2537 35.4893 30.1528C35.6053 30.0983 35.723 30.0469 35.8424 29.9986C35.2479 30.2157 35.1325 30.2624 35.4962 30.1386C36.0487 29.9891 36.5856 29.8622 37.1585 29.7854L36.1636 29.905C37.5421 29.7501 38.9229 29.8155 40.3048 29.8943C42.2623 30.0058 44.1336 28.2744 44.0471 26.5458C43.9515 24.6363 42.4017 23.3169 40.3048 23.1974L40.3048 23.1974Z" fill="rgb(253,101,132)" fill-rule="nonzero" />
	<path id="矢量 18" d="M37.1356 25.52C36.6184 21.4551 36.5701 17.3488 37.1068 13.2823C37.3359 11.5464 37.55 9.60398 38.3301 7.98283C38.5049 7.61964 38.7341 7.24753 38.9971 6.95292C39.0102 6.93821 39.3593 6.50371 39.4582 6.59256C39.5008 6.6308 38.4291 6.77093 38.6878 6.63431C38.6922 6.63198 38.595 6.54321 38.6169 6.52104C38.6416 6.49587 39.0142 7.0823 39.0744 7.2244C39.2061 7.5352 39.3456 8.23349 39.3892 8.49944C39.6852 10.3049 39.5965 12.2341 39.4384 14.0467C39.1264 17.6233 37.9814 21.1793 36.2169 24.3947L43.0569 26.9748C44.3626 22.8882 46.3432 19.0719 49.0098 15.5501C50.5006 13.5811 53.6581 8.91702 56.8508 11.0482C59.8697 13.0634 58.7978 16.6162 56.7184 18.8629C53.7485 22.0715 48.979 23.3741 44.724 24.6386C40.5438 25.8809 41.5937 30.8068 45.7188 31.2159C51.0853 31.748 56.4517 32.2802 61.8182 32.8124C63.9667 33.0254 66.2124 33.0866 68.3168 33.5473C69.3395 33.7712 70.071 33.9047 69.2711 34.8373C68.264 36.0114 65.8866 36.3002 64.3825 36.4957C62.4035 36.7528 60.2888 36.7528 58.3076 36.5069C54.4336 36.0261 50.5696 34.6125 47.5184 32.41C46.3247 31.5483 44.9233 31.1305 43.4304 31.7177C42.154 32.2197 41.0175 33.4457 41.1299 34.7777C41.4771 38.8933 43.8239 42.0076 45.9816 45.5176C46.7765 46.8106 47.6652 48.3236 47.5116 49.8509C47.4439 50.5237 47.1115 51.7515 46.1961 51.9282C43.901 52.3714 42.8591 48.786 42.7097 47.4045C42.2804 43.4357 43.1781 39.5272 41.7973 35.6325C40.9132 33.1389 37.6823 32.4713 35.5424 34.155C32.2464 36.7483 31.2555 40.5729 30.4648 44.2652C30.058 46.1647 29.1493 50.9348 26.3246 50.8898C23.1842 50.8396 23.1632 47.0054 24.1843 45.196C26.1547 41.7045 30.663 40.0456 34.4708 38.6144C36.3328 37.9146 37.6696 36.3999 37.0846 34.4954C36.5595 32.7857 34.4208 31.6245 32.4811 32.1568C27.8611 33.4246 23.1164 34.3949 18.3081 34.8658C15.3583 35.1547 9.41943 36.0672 7.72185 32.9745C6.31867 30.4182 10.4686 29.0665 12.6184 29.3778C16.9322 30.0024 20.0059 33.4494 22.7111 36.2095C25.1598 38.7077 30.1265 36.0715 28.966 32.9517C27.4127 28.7759 25.8595 24.6002 24.3062 20.4244C23.6746 18.7265 22.8443 16.9561 22.6746 15.1598C22.6091 14.4672 22.727 12.2856 24.0353 12.303C24.0984 12.3039 24.0565 12.3273 23.9719 12.3065C24.4236 12.4177 24.8384 13.344 25.0013 13.7019C25.6466 15.1194 25.8705 16.735 26.2019 18.2276C27.132 22.4169 28.0622 26.6061 28.9924 30.7954C29.3864 32.57 31.7488 33.5883 33.5959 33.1341C35.664 32.6255 36.6048 30.7949 36.2097 29.0151C35.0494 23.7895 34.1946 18.4105 32.669 13.2607C31.3636 8.85446 27.543 4.49728 21.8321 5.92278C15.5935 7.47999 14.401 13.8234 15.8344 18.6694C17.4385 24.0923 19.769 29.4097 21.7487 34.7319L28.0036 31.4741C23.7385 27.1226 18.7788 22.8389 11.907 22.6224C5.6553 22.4254 -0.604485 26.9984 0.0467825 32.9039C0.740652 39.1957 7.97194 41.9472 14.2342 41.8365C21.034 41.7164 27.9908 40.3927 34.4709 38.6144L32.4812 32.1567C26.7144 34.3242 20.5693 36.7701 17.5871 42.0435C14.7532 47.0546 15.8213 53.6899 21.7807 56.4869C27.408 59.1281 33.3104 56.3307 35.8159 51.4738C36.9636 49.2488 37.4543 46.9775 37.9936 44.5978C38.4734 42.4814 38.958 40.3671 40.8349 38.8903L34.5801 37.4127C36.2057 41.9981 34.2712 46.9584 36.0905 51.569C37.7884 55.872 42.7359 59.661 48.1361 58.353C53.2321 57.1187 55.584 52.2216 54.8213 47.8341C54.4009 45.4157 53.1581 43.2088 51.7879 41.115C50.51 39.1621 48.8111 37.1075 48.6146 34.7777L42.226 37.1454C47.0777 40.6475 52.6778 42.7327 58.8957 43.2596C64.6156 43.7442 72.7708 42.9156 75.917 37.9559C77.5971 35.3073 77.5458 31.9346 75.2451 29.5944C73.1855 27.4995 70.1518 26.9694 67.2019 26.651C60.05 25.8792 52.8788 25.229 45.7189 24.519L46.7137 31.0962C53.0656 29.2086 59.5185 27.0197 63.4875 21.9047C67.2481 17.0584 67.2954 10.1573 61.9763 6.18389C49.2305 -3.33732 38.5481 16.7174 35.8397 25.1945C34.701 28.7586 40.7739 31.2477 42.6797 27.7747C45.2919 23.0143 46.8199 17.9 47.0149 12.5874C47.1783 8.13558 46.6879 1.77045 40.9207 0.262215C35.2063 -1.23225 31.4558 3.96118 30.4816 8.2478C29.191 13.9265 28.9189 19.7664 29.651 25.52C29.8796 27.3166 31.2073 28.8685 33.3933 28.8685C35.2388 28.8685 37.3657 27.3286 37.1356 25.52L37.1356 25.52Z" fill="rgb(253,101,132)" fill-rule="nonzero" />
</svg>
